<svg width="159" height="159" viewBox="0 0 159 159" fill="none" xmlns="http://www.w3.org/2000/svg">
<circle cx="79.5" cy="79.5" r="79" stroke="white"/>
<path d="M96.9266 78.1343L68.8841 61.4425C68.5567 61.2477 68.1836 61.1431 67.8027 61.1393C67.4218 61.1355 67.0467 61.2326 66.7156 61.4209C66.3844 61.6092 66.109 61.8818 65.9175 62.2111C65.7259 62.5403 65.625 62.9144 65.625 63.2954V96.0113C65.6254 96.3888 65.7249 96.7596 65.9135 97.0866C66.1021 97.4136 66.3732 97.6855 66.6997 97.875C67.0262 98.0645 67.3967 98.165 67.7742 98.1665C68.1517 98.168 68.523 98.0704 68.851 97.8835L96.8933 81.8596C97.2205 81.6726 97.493 81.4031 97.6836 81.078C97.8742 80.7529 97.9763 80.3834 97.9796 80.0066C97.983 79.6297 97.8875 79.2585 97.7027 78.9301C97.5178 78.6016 97.2502 78.3274 96.9263 78.1346L96.9266 78.1343ZM68.5 94.7728V64.5597L94.3969 79.9745L68.5 94.7728Z" fill="white"/>
</svg>
